<?xml version="1.0" encoding="UTF-8"?>
<svg version="1.1" xmlns="http://www.w3.org/2000/svg" width="350" height="350">
<path d="M0 0 C-1.29416052 3.55737844 -2.82778775 6.38920457 -5.0625 9.4375 C-8.15735081 13.75331515 -11.07832623 18.15162101 -13.9375 22.625 C-14.33912354 23.2533374 -14.74074707 23.8816748 -15.15454102 24.52905273 C-16.10463731 26.01834263 -17.05256069 27.50901841 -18 29 C-18.89460938 28.855625 -19.78921875 28.71125 -20.7109375 28.5625 C-35.31503266 25.82819527 -35.31503266 25.82819527 -49 30 C-50.13650923 33.14211376 -50.40257638 34.91741152 -49.23266602 38.06347656 C-44.96819217 44.76298271 -32.64289665 45.64470069 -25.5625 47.25 C-7.67763962 51.54451258 7.37140347 56.39630674 19.4375 70.9375 C24.84093844 81.52823934 25.56768059 92.30176876 22.375 103.75 C18.59778477 114.68681484 12.02739296 123.02837816 1.8828125 128.76171875 C-19.500992 139.151732 -45.1192535 137.6492233 -67.16796875 130.0234375 C-68.10253906 129.68570313 -69.03710938 129.34796875 -70 129 C-70 124.82764155 -69.67069815 123.99125679 -67.515625 120.6640625 C-66.99226563 119.84679687 -66.46890625 119.02953125 -65.9296875 118.1875 C-65.37539062 117.341875 -64.82109375 116.49625 -64.25 115.625 C-63.71117187 114.78710938 -63.17234375 113.94921875 -62.6171875 113.0859375 C-59.78702692 108.69573718 -56.91040172 104.33734625 -54 100 C-52.62476865 100.14363527 -51.24982598 100.29003517 -49.875 100.4375 C-48.72644531 100.55931641 -48.72644531 100.55931641 -47.5546875 100.68359375 C-45.76033857 100.90582963 -43.97312783 101.19021448 -42.1953125 101.51953125 C-38.45435927 102.08204622 -34.77425101 102.22162217 -31 102.25 C-30.31421875 102.270625 -29.6284375 102.29125 -28.921875 102.3125 C-24.20398869 102.3485144 -20.94949024 101.60102999 -17 99 C-15.58090318 95.64982715 -15.58090318 95.64982715 -16 92 C-19.5258961 87.62256673 -22.72426895 86.04571323 -28.0625 84.5 C-28.75077881 84.29552246 -29.43905762 84.09104492 -30.14819336 83.88037109 C-34.89842189 82.49961969 -39.69233629 81.35210305 -44.50830078 80.22705078 C-59.51488989 76.68984482 -75.18964445 71.64556164 -84.4375 58.4375 C-90.34242158 48.71558491 -90.96218629 37.92655431 -88.78515625 26.8828125 C-85.54838396 14.99854411 -78.31552129 6.80178341 -67.90625 0.5390625 C-48.26381297 -9.86298077 -20.17912479 -8.8283671 0 0 Z " fill="#1B4C8B" transform="translate(259,85)"/>
<path d="M0 0 C13.53 0 27.06 0 41 0 C41 45.21 41 90.42 41 137 C28.46 137 15.92 137 3 137 C2.67 112.25 2.34 87.5 2 62 C-0.64 65.96 -3.28 69.92 -6 74 C-10.49739854 69.50260146 -10.49739854 69.50260146 -12.3671875 66.42578125 C-12.97953247 65.43046387 -12.97953247 65.43046387 -13.60424805 64.41503906 C-14.02359619 63.72120117 -14.44294434 63.02736328 -14.875 62.3125 C-18.12028937 56.99755061 -21.42237539 51.80272858 -25.13671875 46.796875 C-26.302071 44.37125492 -25.86208472 43.53800624 -25 41 C-23.95979004 39.11911832 -22.85759693 37.27206826 -21.71875 35.44921875 C-21.04070312 34.35673828 -20.36265625 33.26425781 -19.6640625 32.13867188 C-18.94295602 30.98812597 -18.22160155 29.83773547 -17.5 28.6875 C-11.57339585 19.17697767 -5.7668611 9.61143516 0 0 Z " fill="#194A8A" transform="translate(118,81)"/>
<path d="M0 0 C3.44427727 1.14809242 3.76889838 1.74541479 5.64453125 4.69921875 C6.14952148 5.48538574 6.65451172 6.27155273 7.17480469 7.08154297 C7.71524414 7.94150879 8.25568359 8.80147461 8.8125 9.6875 C9.38000977 10.5758252 9.94751953 11.46415039 10.53222656 12.37939453 C12.36254298 15.24809242 14.18128958 18.12393327 16 21 C17.21660382 22.91069398 18.43404582 24.82085453 19.65234375 26.73046875 C25.90697555 36.53835461 25.90697555 36.53835461 28.06799316 40.03590393 C29.97755354 43.05327037 29.97755354 43.05327037 32.27812195 45.94171143 C39.62468362 55.65860489 40.21972541 63.74561213 39.87890625 75.6484375 C39.86207514 77.39959404 39.84928531 79.15079359 39.84031677 80.90200806 C39.80630421 85.46347542 39.71821787 90.02227429 39.61798096 94.58270264 C39.5087563 100.0798631 39.46823394 105.57792684 39.41590118 111.0758667 C39.32925686 119.3857547 39.15661356 127.68981357 39 136 C26.13 136 13.26 136 0 136 C0 91.12 0 46.24 0 0 Z " fill="#1A4B8A" transform="translate(299,82)"/>
<path d="M0 0 C34.36219329 -2.97596835 34.36219329 -2.97596835 42.83056641 1.49414062 C47.00026815 5.57393801 48.85586797 10.7487429 50.82226562 16.14697266 C52.94095308 21.27943154 56.18976761 25.68480501 59.3125 30.25 C60.58885377 32.19254737 61.86096409 34.13788927 63.12890625 36.0859375 C63.76586426 37.05885742 64.40282227 38.03177734 65.05908203 39.03417969 C67.00891449 42.0136218 68.95619652 44.99471207 70.90234375 47.9765625 C71.54139648 48.9555249 72.18044922 49.9344873 72.83886719 50.94311523 C74.10064396 52.87881749 75.36045061 54.81580555 76.61816406 56.75415039 C79.52236217 61.2270027 82.44891937 65.67825219 85.45703125 70.08203125 C85.98393555 70.86400879 86.51083984 71.64598633 87.05371094 72.45166016 C88.03218658 73.90164072 89.02306023 75.34336108 90.02832031 76.77490234 C91.31640625 78.69921875 91.31640625 78.69921875 93 82 C92.23876953 83.98510742 92.23876953 83.98510742 91 86 C90.65880127 86.58217285 90.31760254 87.1643457 89.96606445 87.76416016 C88.75109535 89.71962293 87.5352703 91.67440108 86.3125 93.625 C85.86986816 94.33269531 85.42723633 95.04039062 84.97119141 95.76953125 C81.48665902 101.30445575 77.84295715 106.70639015 74 112 C69.96653244 110.65551081 68.75734091 108.03492056 66.5703125 104.60546875 C66.1435321 103.95061493 65.71675171 103.29576111 65.27703857 102.62106323 C63.88523403 100.48148596 62.50511763 98.33463047 61.125 96.1875 C60.16888505 94.71297141 59.21201359 93.23893307 58.25439453 91.76538086 C56.35854427 88.84543776 54.46713697 85.92270256 52.58007812 82.99707031 C49.87921452 78.81001591 47.16032011 74.63486619 44.43847656 70.46142578 C41.95162552 66.64571711 39.47555087 62.82304601 37 59 C36.52949219 58.27361328 36.05898438 57.54722656 35.57421875 56.79882812 C32.82854971 52.55930335 30.08509787 48.31834897 27.34277344 44.07666016 C24.60968121 39.8498088 21.87473152 35.62415885 19.13989258 31.3984375 C16.75996355 27.72086933 14.38111602 24.04260786 12.00390625 20.36328125 C11.51148438 19.60144531 11.0190625 18.83960937 10.51171875 18.0546875 C9.5751736 16.60569312 8.63895296 15.15648893 7.703125 13.70703125 C7.27644531 13.04703125 6.84976562 12.38703125 6.41015625 11.70703125 C6.00555176 11.08006348 5.60094727 10.4530957 5.18408203 9.80712891 C4.04259397 8.0650063 2.86540459 6.35161495 1.68359375 4.63671875 C0 2 0 2 0 0 Z " fill="#1E99CC" transform="translate(13,81)"/>
<path d="M0 0 C0.66 0 1.32 0 2 0 C3.58879708 2.32514342 5.05680997 4.64864206 6.5 7.0625 C7.41217002 8.55584512 8.32627561 10.04800945 9.2421875 11.5390625 C9.70592773 12.29477539 10.16966797 13.05048828 10.64746094 13.82910156 C12.18221214 16.29246035 13.77021576 18.71202224 15.39874268 21.11416626 C16.1867625 22.28588047 16.96628451 23.46337954 17.73498535 24.64785767 C20.32577083 28.62022473 23.06859747 32.39192079 25.98974609 36.12890625 C38.23525462 52.49036207 40.15724057 66.01386723 39.09863281 85.99389648 C38.93114287 89.50662494 38.86020728 93.02146179 38.78125 96.53710938 C38.62112536 103.36842689 38.30832994 110.16749416 38 117 C25.46 117 12.92 117 0 117 C0 78.39 0 39.78 0 0 Z " fill="#174989" transform="translate(13,101)"/>
<path d="M0 0 C8.25 0.33 16.5 0.66 25 1 C25.495 20.8 25.495 20.8 26 41 C25.01 41.495 25.01 41.495 24 42 C23.39414062 41.01902344 22.78828125 40.03804687 22.1640625 39.02734375 C17.77440679 31.94731094 13.32960736 24.9177021 8.6875 18 C8.27089111 17.37697998 7.85428223 16.75395996 7.42504883 16.11206055 C5.69994946 13.53291037 3.97072762 10.95692962 2.2265625 8.390625 C1.0723003 6.64328885 0.01999883 4.82896342 -1 3 C-0.67 2.01 -0.34 1.02 0 0 Z " fill="#1C98CC" transform="translate(313,80)"/>
<path d="M0 0 C2.0625 1.6875 2.0625 1.6875 4.0625 4.6875 C4.1875 7.875 4.1875 7.875 4.0625 10.6875 C1.6875 10.5 1.6875 10.5 -0.9375 9.6875 C-2.25 7.125 -2.25 7.125 -2.9375 4.6875 C-7.98759595 3.74963918 -7.98759595 3.74963918 -12.9375 4.6875 C-15.53919161 9.76079865 -15.33101628 15.25372177 -13.9375 20.6875 C-12.66735913 22.51555623 -12.66735913 22.51555623 -10.9375 23.6875 C-6.85955575 24.11228586 -5.40673881 24.00032587 -1.9375 21.6875 C-1.21367533 19.62824861 -1.21367533 19.62824861 -0.9375 17.6875 C1.0425 17.6875 3.0225 17.6875 5.0625 17.6875 C3.16594828 25.41959549 3.16594828 25.41959549 0.0625 27.6875 C-2.125 28.875 -2.125 28.875 -3.9375 29.6875 C-3.73125 30.30625 -3.525 30.925 -3.3125 31.5625 C-3.18875 32.26375 -3.065 32.965 -2.9375 33.6875 C-4.9375 35.6875 -4.9375 35.6875 -6.8828125 35.8828125 C-8.90104167 35.81770833 -10.91927083 35.75260417 -12.9375 35.6875 C-12.9375 34.6975 -12.9375 33.7075 -12.9375 32.6875 C-11.9475 32.1925 -11.9475 32.1925 -10.9375 31.6875 C-10.9375 30.6975 -10.9375 29.7075 -10.9375 28.6875 C-11.865625 28.44 -12.79375 28.1925 -13.75 27.9375 C-17.15112873 26.60372403 -18.15235929 25.78800754 -19.9375 22.6875 C-21.91678051 16.74965847 -21.68568301 10.05674619 -19.8125 4.125 C-14.97158218 -2.16819316 -7.00603726 -3.13035707 0 0 Z " fill="#39A6D2" transform="translate(249.9375,235.3125)"/>
<path d="M0 0 C3.67547809 1.76967464 5.5140788 3.31971033 7.875 6.625 C9.80693282 12.42079845 9.87191571 17.71641125 7.6875 23.4375 C5.33988816 27.00239205 4.08494861 28.63835046 0 30 C-4.19756604 30.40875175 -7.86971366 30.45211454 -11.8125 28.875 C-15.52492221 25.69292382 -17.70965147 23.13802103 -18.38671875 18.15234375 C-18.56114284 13.29854223 -18.41032266 9.86623674 -16.3125 5.4375 C-11.37679655 0.23500177 -7.05182395 -1.10690006 0 0 Z M-12 8 C-13.72639465 13.17918395 -13.62114934 17.44712666 -11.625 22.4375 C-10.25274335 25.08856572 -10.25274335 25.08856572 -8 26 C-4.36476262 26.40391526 -2.43994463 26.23463713 0.8125 24.5 C3.69996677 21.20003797 4.14268209 18.24875552 4 14 C3.32024728 10.2304622 2.81550513 7.87174686 0.1875 5.0625 C-5.05905555 2.51417302 -7.98309355 4.09467429 -12 8 Z " fill="#3DA7D3" transform="translate(276,234)"/>
<path d="M0 0 C3.1496464 1.60345635 5.19557986 2.92743982 7.3125 5.75 C9.23123561 12.02949835 9.67991005 17.91166067 7 24 C2.07749767 29.78394024 2.07749767 29.78394024 -1.953125 30.203125 C-7.04108387 30.3069609 -10.71450183 30.06107012 -15 27 C-19.06830748 21.71120027 -18.62902919 15.36892055 -18 9 C-16.72617008 4.96620526 -15.79234252 3.56595894 -12.375 1.125 C-8.09822921 -0.30059026 -4.46146677 -0.72628529 0 0 Z M-11 6 C-13.90269609 10.64640202 -13.75971195 15.70551261 -13 21 C-10.57735169 24.63397247 -9.25788015 25.73794164 -5 26.625 C-1.88710584 26.15114624 -1.88710584 26.15114624 0.875 24.25 C4.08315394 19.34341162 3.98364949 14.69729784 3 9 C1.05860827 5.63694509 1.05860827 5.63694509 -2 4 C-5.54774927 3.39428671 -8.03842928 3.95753744 -11 6 Z " fill="#41AAD4" transform="translate(166,234)"/>
<path d="M0 0 C2.63136193 2.46690181 2.76481427 4.34721403 3 7.875 C1.35 7.875 -0.3 7.875 -2 7.875 C-2 6.885 -2 5.895 -2 4.875 C-3.918125 4.5965625 -3.918125 4.5965625 -5.875 4.3125 C-6.59429687 4.20808594 -7.31359375 4.10367188 -8.0546875 3.99609375 C-10.08140667 3.7065703 -10.08140667 3.7065703 -12 4.875 C-11.95379056 6.81648357 -11.95379056 6.81648357 -11 8.875 C-8.33511856 10.3548267 -8.33511856 10.3548267 -5.125 11.4375 C1.91089497 14.02297948 1.91089497 14.02297948 4 16.875 C4.4375 20.3125 4.4375 20.3125 4 23.875 C2.13291495 26.23997439 0.67938569 27.53530715 -2 28.875 C-6.87764023 29.28343364 -11.46648574 29.39639485 -16.125 27.8125 C-18.78873874 25.05996997 -18.78865047 22.60884175 -19 18.875 C-16.6875 18.5625 -16.6875 18.5625 -14 18.875 C-13.54625 19.7 -13.0925 20.525 -12.625 21.375 C-12.08875 22.2 -11.5525 23.025 -11 23.875 C-7.37400578 24.29225678 -7.37400578 24.29225678 -4 23.875 C-2.89163577 21.99183841 -2.89163577 21.99183841 -2 19.875 C-2.84523247 17.63533724 -2.84523247 17.63533724 -5.36328125 16.91015625 C-7.32160638 16.26429803 -9.27993964 15.6184645 -11.23828125 14.97265625 C-13.9771484 13.88408246 -15.88565202 12.92512713 -18 10.875 C-18.69328139 8.16738135 -18.48101248 5.61791641 -18 2.875 C-14.1853908 -2.75608977 -5.70374093 -2.13890285 0 0 Z " fill="#3AA6D3" transform="translate(140,235.125)"/>
<path d="M0 0 C2.63136193 2.46690181 2.76481427 4.34721403 3 7.875 C1.35 7.875 -0.3 7.875 -2 7.875 C-2.33 6.885 -2.66 5.895 -3 4.875 C-7.61507774 3.83285309 -7.61507774 3.83285309 -12 4.875 C-11.95379056 6.81648357 -11.95379056 6.81648357 -11 8.875 C-8.33511856 10.3548267 -8.33511856 10.3548267 -5.125 11.4375 C1.87227658 14.00878838 1.87227658 14.00878838 4 16.875 C4.40859509 20.71579385 4.3603151 23.72791321 2 26.875 C-2.49344571 29.68340357 -7.88388795 29.39585213 -13 28.875 C-16.0625 27.8125 -16.0625 27.8125 -18 25.875 C-18.8125 22.1875 -18.8125 22.1875 -19 18.875 C-17.35 18.875 -15.7 18.875 -14 18.875 C-13.67 20.525 -13.34 22.175 -13 23.875 C-11.54207116 23.92899736 -10.08357288 23.96779177 -8.625 24 C-7.81289063 24.02320313 -7.00078125 24.04640625 -6.1640625 24.0703125 C-3.78657757 24.08870051 -3.78657757 24.08870051 -2 21.875 C-1.94837994 19.78852213 -1.94837994 19.78852213 -3 17.875 C-5.15052089 16.87462606 -5.15052089 16.87462606 -7.75 16.375 C-11.99594786 15.24517696 -14.95811856 14.21125706 -18 10.875 C-19 8.4375 -19 8.4375 -19 5.875 C-15.45169003 -2.15538571 -7.62223352 -2.85833757 0 0 Z " fill="#3FA9D4" transform="translate(334,235.125)"/>
<path d="M0 0 C6.93 0 13.86 0 21 0 C21 1.65 21 3.3 21 5 C15.72 5 10.44 5 5 5 C5 7.64 5 10.28 5 13 C9.62 13 14.24 13 19 13 C19 14.32 19 15.64 19 17 C14.38 17 9.76 17 5 17 C5 19.97 5 22.94 5 26 C10.61 26 16.22 26 22 26 C21.67 27.32 21.34 28.64 21 30 C14.07 30 7.14 30 0 30 C0 20.1 0 10.2 0 0 Z " fill="#44ABD5" transform="translate(290,234)"/>
<path d="M0 0 C1.65 0.33 3.3 0.66 5 1 C5.33 8.92 5.66 16.84 6 25 C8.64 25 11.28 25 14 25 C16.52128356 22.47871644 16.29353069 21.48760987 16.4140625 17.9921875 C16.45273438 17.00605469 16.49140625 16.01992187 16.53125 15.00390625 C16.5621875 13.97136719 16.593125 12.93882812 16.625 11.875 C16.66367188 10.83472656 16.70234375 9.79445312 16.7421875 8.72265625 C16.83664766 6.14861689 16.92221214 3.57458845 17 1 C18.65 0.67 20.3 0.34 22 0 C22.0580966 3.9166043 22.09362893 7.83309763 22.125 11.75 C22.14175781 12.86117187 22.15851563 13.97234375 22.17578125 15.1171875 C22.18222656 16.18710938 22.18867188 17.25703125 22.1953125 18.359375 C22.20578613 19.34389648 22.21625977 20.32841797 22.22705078 21.34277344 C21.99202036 24.09338754 21.47726587 25.68817058 20 28 C17.10379739 29.94530347 14.57832668 30.34605677 11.125 30.4375 C10.30257812 30.47746094 9.48015625 30.51742188 8.6328125 30.55859375 C4.86407856 29.7589959 2.28222012 28.04770522 0 25 C-0.84219564 22.19906695 -0.88517835 19.53600744 -0.875 16.625 C-0.9059375 15.53058594 -0.9059375 15.53058594 -0.9375 14.4140625 C-0.99097604 12.27502102 -0.99899877 10.13962773 -1 8 C-1.02320313 6.68773437 -1.04640625 5.37546875 -1.0703125 4.0234375 C-1 1 -1 1 0 0 Z " fill="#4EB0D8" transform="translate(202,234)"/>
<path d="M0 0 C2.9719385 1.12451727 5.33440687 2.22293791 8 4 C6.36435494 8.67976225 3.88581042 12.64895166 1.25 16.8125 C0.58218506 17.87500977 0.58218506 17.87500977 -0.09912109 18.95898438 C-3.18340797 23.82314083 -6.42279954 28.481431 -10 33 C-12.64 31.68 -15.28 30.36 -18 29 C-16.57091424 25.02079009 -14.66433497 21.76373523 -12.3046875 18.26171875 C-11.58925781 17.19501953 -10.87382812 16.12832031 -10.13671875 15.02929688 C-9.38291335 13.91529633 -8.62900583 12.80136489 -7.875 11.6875 C-7.11285478 10.55432318 -6.35113164 9.42086235 -5.58984375 8.28710938 C-3.73069414 5.5219185 -1.86729186 2.75969621 0 0 Z " fill="#2FA1D0" transform="translate(189,176)"/>
<path d="M0 0 C3.82426669 0.54632381 5.39231585 2.26083597 8 5 C-3.89438718 24.63240682 -3.89438718 24.63240682 -9 32 C-13.37426366 31.5139707 -15.03866935 30.1638148 -18 27 C-15.56476228 23.24852636 -13.12641859 19.49908147 -10.6875 15.75 C-9.99720703 14.68652344 -9.30691406 13.62304688 -8.59570312 12.52734375 C-7.92861328 11.50253906 -7.26152344 10.47773437 -6.57421875 9.421875 C-5.65515747 8.00793457 -5.65515747 8.00793457 -4.7175293 6.56542969 C-3.21166162 4.31615356 -1.64894857 2.14561983 0 0 Z " fill="#2EA1D0" transform="translate(267,90)"/>
<path d="M0 0 C0.66 0 1.32 0 2 0 C2.66 1.65 3.32 3.3 4 5 C3.34 5 2.68 5 2 5 C2 41.63 2 78.26 2 116 C13.88 116 25.76 116 38 116 C38 116.33 38 116.66 38 117 C25.46 117 12.92 117 0 117 C0 78.39 0 39.78 0 0 Z " fill="#7995BA" transform="translate(13,101)"/>
<path d="M0 0 C1.65 0.33 3.3 0.66 5 1 C5 9.25 5 17.5 5 26 C5.99 25.67 6.98 25.34 8 25 C9.73324119 25.08461492 11.46392812 25.23604355 13.1875 25.4375 C14.08855469 25.53933594 14.98960937 25.64117187 15.91796875 25.74609375 C16.60503906 25.82988281 17.29210937 25.91367187 18 26 C18 27.32 18 28.64 18 30 C15.02077407 30.02683987 12.04178705 30.04676037 9.0625 30.0625 C7.78729492 30.07506836 7.78729492 30.07506836 6.48632812 30.08789062 C5.67744141 30.09111328 4.86855469 30.09433594 4.03515625 30.09765625 C3.2862915 30.10289307 2.53742676 30.10812988 1.76586914 30.11352539 C0 30 0 30 -1 29 C-1.09993532 26.9394469 -1.13080906 24.8754741 -1.1328125 22.8125 C-1.13410156 21.55695313 -1.13539063 20.30140625 -1.13671875 19.0078125 C-1.13462402 18.35071289 -1.1325293 17.69361328 -1.13037109 17.01660156 C-1.12502234 15.00838665 -1.13031691 13.00039541 -1.13671875 10.9921875 C-1.13542969 9.73664063 -1.13414062 8.48109375 -1.1328125 7.1875 C-1.13112061 5.44533203 -1.13112061 5.44533203 -1.12939453 3.66796875 C-1 1 -1 1 0 0 Z " fill="#50B0D8" transform="translate(180,234)"/>
<path d="M0 0 C0.268125 0.598125 0.53625 1.19625 0.8125 1.8125 C2.05646632 4.1040169 2.87633118 5.4830937 5 7 C9.07794425 7.42478586 10.53076119 7.31282587 14 5 C14.72382467 2.94074861 14.72382467 2.94074861 15 1 C16.98 1 18.96 1 21 1 C19.10344828 8.73209549 19.10344828 8.73209549 16 11 C13.8125 12.1875 13.8125 12.1875 12 13 C12.20625 13.61875 12.4125 14.2375 12.625 14.875 C12.74875 15.57625 12.8725 16.2775 13 17 C11 19 11 19 9.0546875 19.1953125 C7.03645833 19.13020833 5.01822917 19.06510417 3 19 C3 18.01 3 17.02 3 16 C3.66 15.67 4.32 15.34 5 15 C5 14.01 5 13.02 5 12 C4.071875 11.7525 3.14375 11.505 2.1875 11.25 C-1.18995757 9.92550684 -2.2906366 9.1338329 -4 6 C-4 5.01 -4 4.02 -4 3 C-3.01 3 -2.02 3 -1 3 C-0.67 2.01 -0.34 1.02 0 0 Z " fill="#44ABD5" transform="translate(234,252)"/>
<path d="M0 0 C5.43396226 2.71698113 5.43396226 2.71698113 6.9375 6.125 C7 8 7 8 6 10 C5.34 10 4.68 10 4 10 C4 12.97 4 15.94 4 19 C3.67 19 3.34 19 3 19 C2.97421875 18.32453125 2.9484375 17.6490625 2.921875 16.953125 C2.66836945 12.96617405 2.46582777 9.83460809 0.5 6.3125 C-2.85061312 4.55342811 -5.28010047 4.85702065 -8.9765625 5.25 C-11.18985832 5.83437881 -11.18985832 5.83437881 -12.2734375 8.0625 C-12.51320312 8.701875 -12.75296875 9.34125 -13 10 C-13 9.34 -13 8.68 -13 8 C-14.32 8.33 -15.64 8.66 -17 9 C-16.45712148 5.19985035 -14.88535357 3.46103687 -12 1 C-7.93124085 -0.35625305 -4.25409444 -0.52904411 0 0 Z " fill="#46ACD5" transform="translate(166,234)"/>
<path d="M0 0 C0.66 0.33 1.32 0.66 2 1 C2.57222507 4.25623311 2.89614156 7.51334483 3.2421875 10.80078125 C4.11171079 14.47160379 5.01882617 15.7455536 8 18 C10.09989111 18.88246003 10.09989111 18.88246003 12.25 19.25 C13.4875 19.4975 14.725 19.745 16 20 C15.67 20.66 15.34 21.32 15 22 C5.33333333 22.56862745 5.33333333 22.56862745 1 19 C-2.24981791 15.58493711 -2.38052202 13.01096215 -2.3125 8.375 C-2.30863281 7.22773438 -2.30476563 6.08046875 -2.30078125 4.8984375 C-2 2 -2 2 0 0 Z " fill="#2EA1D0" transform="translate(261,242)"/>
<path d="M0 0 C1.32 0 2.64 0 4 0 C4 7.26 4 14.52 4 22 C2.68 22.33 1.36 22.66 0 23 C-0.81943398 17.99234789 -1.13508122 13.21601392 -1.125 8.125 C-1.12757813 6.80757812 -1.13015625 5.49015625 -1.1328125 4.1328125 C-1 1 -1 1 0 0 Z " fill="#1193C9" transform="translate(202,234)"/>
<path d="M0 0 C1.65 0 3.3 0 5 0 C5.33 1.65 5.66 3.3 6 5 C6.66 5 7.32 5 8 5 C8 5.66 8 6.32 8 7 C13.53069113 7.43933257 13.53069113 7.43933257 18.5 5.5 C18.995 5.005 19.49 4.51 20 4 C20.33 5.32 20.66 6.64 21 8 C16.18668063 10.56710366 11.31173353 10.54076762 6 10 C2.9375 8.9375 2.9375 8.9375 1 7 C0.1875 3.3125 0.1875 3.3125 0 0 Z " fill="#2DA0CF" transform="translate(315,254)"/>
<path d="M0 0 C8.25 0.33 16.5 0.66 25 1 C25.495 20.8 25.495 20.8 26 41 C25.01 41.495 25.01 41.495 24 42 C22.4375 39.6875 22.4375 39.6875 21 37 C21.33 36.01 21.66 35.02 22 34 C22.495 34.495 22.495 34.495 23 35 C23.33 24.11 23.66 13.22 24 2 C11.625 2.495 11.625 2.495 -1 3 C-0.67 2.01 -0.34 1.02 0 0 Z " fill="#52B5DA" transform="translate(313,80)"/>
<path d="M0 0 C1.32 0 2.64 0 4 0 C4 7.92 4 15.84 4 24 C2.68 23.67 1.36 23.34 0 23 C0 15.41 0 7.82 0 0 Z " fill="#259CCE" transform="translate(220,234)"/>
<path d="M0 0 C0 0.33 0 0.66 0 1 C-2.64 1 -5.28 1 -8 1 C-7.67 2.32 -7.34 3.64 -7 5 C-7.61875 5.433125 -8.2375 5.86625 -8.875 6.3125 C-11.2197245 7.99740483 -11.2197245 7.99740483 -13 11 C-13.66 10.34 -14.32 9.68 -15 9 C-16.73956658 10.73956658 -16.37190386 13.1936622 -16.5625 15.5625 C-16.64628906 16.57441406 -16.73007812 17.58632812 -16.81640625 18.62890625 C-16.87699219 19.41136719 -16.93757813 20.19382813 -17 21 C-17.33 21 -17.66 21 -18 21 C-18.62247839 10.31412104 -18.62247839 10.31412104 -16.3125 5.4375 C-11.14075903 -0.01379454 -7.22940905 -0.42525936 0 0 Z " fill="#4CAFD7" transform="translate(276,234)"/>
<path d="M0 0 C0.99 0.66 1.98 1.32 3 2 C3.29296875 4.8203125 3.29296875 4.8203125 3.1875 8.125 C3.16042969 9.22070312 3.13335937 10.31640625 3.10546875 11.4453125 C3.07066406 12.28835937 3.03585938 13.13140625 3 14 C2.01 14.495 2.01 14.495 1 15 C0.01 14.67 -0.98 14.34 -2 14 C-2.05389087 12.04196493 -2.09274217 10.08351091 -2.125 8.125 C-2.14820313 7.03445312 -2.17140625 5.94390625 -2.1953125 4.8203125 C-2 2 -2 2 0 0 Z " fill="#2B9FCF" transform="translate(231,241)"/>
<path d="M0 0 C1.09570312 0.00902344 2.19140625 0.01804688 3.3203125 0.02734375 C4.16335938 0.03894531 5.00640625 0.05054688 5.875 0.0625 C5.215 1.7125 4.555 3.3625 3.875 5.0625 C3.27171875 5.05089844 2.6684375 5.03929687 2.046875 5.02734375 C1.24765625 5.01832031 0.4484375 5.00929687 -0.375 5 C-1.16390625 4.98839844 -1.9528125 4.97679687 -2.765625 4.96484375 C-5.03191002 5.05864694 -6.9538895 5.43008937 -9.125 6.0625 C-8.75 3.625 -8.75 3.625 -8.125 1.0625 C-5.36047967 -0.31976016 -3.0788637 -0.03275387 0 0 Z " fill="#63B9DC" transform="translate(273.125,225.9375)"/>
<path d="M0 0 C0.66 0 1.32 0 2 0 C2 0.99 2 1.98 2 3 C4.65228812 4.07525194 7.28368454 5.09456151 10 6 C9.67 7.32 9.34 8.64 9 10 C7.53984709 9.71758359 6.08190207 9.42373386 4.625 9.125 C3.81289063 8.96257812 3.00078125 8.80015625 2.1640625 8.6328125 C0 8 0 8 -2 6 C-1.44444444 1.44444444 -1.44444444 1.44444444 0 0 Z " fill="#2EA0D0" transform="translate(318,240)"/>
<path d="M0 0 C1.21236328 0.01353516 1.21236328 0.01353516 2.44921875 0.02734375 C3.37154297 0.04474609 3.37154297 0.04474609 4.3125 0.0625 C4.3125 0.3925 4.3125 0.7225 4.3125 1.0625 C2.3325 1.3925 0.3525 1.7225 -1.6875 2.0625 C-2.0175 3.0525 -2.3475 4.0425 -2.6875 5.0625 C-3.6775 5.3925 -4.6675 5.7225 -5.6875 6.0625 C-6.91270264 9.07097418 -6.91270264 9.07097418 -7.6875 12.0625 C-9.6875 10.25 -9.6875 10.25 -11.6875 8.0625 C-11.6875 5.0625 -11.6875 5.0625 -9.875 2.9375 C-6.64628183 0.17002728 -4.0996587 -0.05941534 0 0 Z " fill="#4DAFD7" transform="translate(242.6875,233.9375)"/>
<path d="M0 0 C0.268125 0.598125 0.53625 1.19625 0.8125 1.8125 C2.42364755 4.84068566 2.42364755 4.84068566 5 7 C7.71815286 7.2529766 10.25911949 7.1347974 13 7 C12 9 12 9 9.671875 9.80859375 C6.72645114 10.44256867 4.01513139 10.93995471 1 11 C-2.1875 8.8125 -2.1875 8.8125 -4 6 C-4 5.01 -4 4.02 -4 3 C-3.01 3 -2.02 3 -1 3 C-0.67 2.01 -0.34 1.02 0 0 Z " fill="#50B1D8" transform="translate(234,252)"/>
<path d="M0 0 C2.46392937 2.89243882 3.90346814 5.13872576 4 9 C2.6875 11.4375 2.6875 11.4375 0 13 C-3.44513925 12.72503583 -6.67965508 11.93780734 -10 11 C-10 10.67 -10 10.34 -10 10 C-8.88625 9.71125 -7.7725 9.4225 -6.625 9.125 C-2.99708908 8.30758671 -2.99708908 8.30758671 -1 6 C-0.60235737 4.01178687 -0.26224651 2.01055661 0 0 Z " fill="#40A9D4" transform="translate(279,250)"/>
<path d="M0 0 C2.3125 -0.3125 2.3125 -0.3125 5 0 C6.01866229 1.65532623 7.01810813 3.32260138 8 5 C10.59122743 5.88658466 10.59122743 5.88658466 13 6 C13 6.33 13 6.66 13 7 C10.01484099 7.94402464 7.12537523 8.72565553 4 9 C1.4375 7.4375 1.4375 7.4375 0 5 C-0.25 2.25 -0.25 2.25 0 0 Z " fill="#54B3D9" transform="translate(121,254)"/>
<path d="M0 0 C0.66 0 1.32 0 2 0 C3.51361621 8.93033566 3.51361621 8.93033566 1 13 C-0.98 13.99 -0.98 13.99 -3 15 C-2.67 10.71 -2.34 6.42 -2 2 C-1.34 2 -0.68 2 0 2 C0 1.34 0 0.68 0 0 Z " fill="#219ACD" transform="translate(172,242)"/>
<path d="M0 0 C1.32 0 2.64 0 4 0 C4 0.99 4 1.98 4 3 C6.475 3.99 6.475 3.99 9 5 C8.67 6.32 8.34 7.64 8 9 C2.25 8.25 2.25 8.25 0 6 C-0.125 2.875 -0.125 2.875 0 0 Z " fill="#2DA0D0" transform="translate(122,240)"/>
<path d="M0 0 C0.33 0 0.66 0 1 0 C1.33 7.92 1.66 15.84 2 24 C2.66 24.33 3.32 24.66 4 25 C2.35 25.66 0.7 26.32 -1 27 C-2.5 25.625 -2.5 25.625 -4 24 C-4 23.34 -4 22.68 -4 22 C-3.01 21.67 -2.02 21.34 -1 21 C-0.67 14.07 -0.34 7.14 0 0 Z " fill="#74C1E0" transform="translate(206,235)"/>
<path d="M0 0 C1.65 0 3.3 0 5 0 C5.12375 0.804375 5.2475 1.60875 5.375 2.4375 C5.684375 3.7059375 5.684375 3.7059375 6 5 C6.66 5.33 7.32 5.66 8 6 C7.34 6 6.68 6 6 6 C6 6.99 6 7.98 6 9 C3.525 8.01 3.525 8.01 1 7 C0.67 4.69 0.34 2.38 0 0 Z " fill="#57B4DA" transform="translate(315,254)"/>
<path d="M0 0 C2.4375 0.625 2.4375 0.625 5 2 C5.8125 5.125 5.8125 5.125 6 8 C4.35 8 2.7 8 1 8 C1 7.01 1 6.02 1 5 C-0.32 4.34 -1.64 3.68 -3 3 C-2.01 2.01 -1.02 1.02 0 0 Z " fill="#31A2D1" transform="translate(137,235)"/>
<path d="M0 0 C2.375 1.5 2.375 1.5 3.1875 4.625 C3.249375 5.57375 3.31125 6.5225 3.375 7.5 C1.725 7.5 0.075 7.5 -1.625 7.5 C-1.955 6.51 -2.285 5.52 -2.625 4.5 C-4.12485609 2.83289654 -4.12485609 2.83289654 -5.625 1.5 C-2.625 -0.5 -2.625 -0.5 0 0 Z " fill="#31A2D1" transform="translate(333.625,235.5)"/>
<path d="M0 0 C0.66 0 1.32 0 2 0 C2 4.95 2 9.9 2 15 C1.01 14.67 0.02 14.34 -1 14 C-1.02685938 11.85423363 -1.04633088 9.70837355 -1.0625 7.5625 C-1.07410156 6.36753906 -1.08570313 5.17257813 -1.09765625 3.94140625 C-1 1 -1 1 0 0 Z " fill="#34A4D2" transform="translate(151,242)"/>
<path d="M0 0 C2.0625 0.4375 2.0625 0.4375 4 1 C3.01 1.33 2.02 1.66 1 2 C1 7.94 1 13.88 1 20 C-1.10927345 15.7814531 -1.26983436 12.86689004 -1.1875 8.3125 C-1.18685547 7.62349609 -1.18621094 6.93449219 -1.18554688 6.22460938 C-1.14055525 1.14055525 -1.14055525 1.14055525 0 0 Z " fill="#65BDDD" transform="translate(202,234)"/>
<path d="M0 0 C0.66 0.33 1.32 0.66 2 1 C1.55066068 5.67312888 0.98090266 8.38775335 -2 12 C-2.05395478 10.37536158 -2.09277195 8.75021459 -2.125 7.125 C-2.14820313 6.22007812 -2.17140625 5.31515625 -2.1953125 4.3828125 C-2 2 -2 2 0 0 Z " fill="#1092C9" transform="translate(261,242)"/>
<path d="M0 0 C1.21236328 0.01353516 1.21236328 0.01353516 2.44921875 0.02734375 C3.37154297 0.04474609 3.37154297 0.04474609 4.3125 0.0625 C4.3125 0.3925 4.3125 0.7225 4.3125 1.0625 C1.6725 1.0625 -0.9675 1.0625 -3.6875 1.0625 C-3.3575 2.3825 -3.0275 3.7025 -2.6875 5.0625 C-5.1625 6.5475 -5.1625 6.5475 -7.6875 8.0625 C-7.501875 7.27875 -7.31625 6.495 -7.125 5.6875 C-6.42787734 3.09160225 -6.42787734 3.09160225 -7.6875 1.0625 C-4.80538698 0.10179566 -2.98899956 -0.04331883 0 0 Z " fill="#65BBDD" transform="translate(271.6875,233.9375)"/>
<path d="M0 0 C2 1 2 1 2 1 Z M0 1 C0.66 1.33 1.32 1.66 2 2 C2 2.66 2 3.32 2 4 C-0.97 4 -3.94 4 -7 4 C-7.33 3.34 -7.66 2.68 -8 2 C-5.26094655 0.63047327 -3.02912668 0.87378639 0 1 Z " fill="#2FA1D0" transform="translate(164,260)"/>
<path d="M0 0 C2.50298434 2.93828597 3.46930939 5.17902761 4 9 C1.37886292 9 -0.50935112 8.68707555 -3 8 C-2.34 7.34 -1.68 6.68 -1 6 C-0.60235737 4.01178687 -0.26224651 2.01055661 0 0 Z " fill="#55B3D9" transform="translate(279,250)"/>
<path d="M0 0 C1.32 0 2.64 0 4 0 C3.34 1.65 2.68 3.3 2 5 C0.02 5 -1.96 5 -4 5 C-3.67 4.01 -3.34 3.02 -3 2 C-2.01 2 -1.02 2 0 2 C0 1.34 0 0.68 0 0 Z " fill="#4BAED7" transform="translate(275,226)"/>
<path d="M0 0 C3 0 3 0 5 1 C4.67 2.32 4.34 3.64 4 5 C2.68 5.33 1.36 5.66 0 6 C-0.66 4.68 -1.32 3.36 -2 2 C-1.34 1.34 -0.68 0.68 0 0 Z " fill="#45ACD5" transform="translate(218,257)"/>
<path d="M0 0 C2.64 0 5.28 0 8 0 C7.67 0.99 7.34 1.98 7 3 C4.69 3 2.38 3 0 3 C0 2.01 0 1.02 0 0 Z " fill="#1B98CB" transform="translate(268,235)"/>
<path d="M0 0 C0.66 0 1.32 0 2 0 C0.25 3.875 0.25 3.875 -2 5 C-4.3400417 4.71758117 -6.67504723 4.38749213 -9 4 C-9 3.67 -9 3.34 -9 3 C-7.88625 2.87625 -6.7725 2.7525 -5.625 2.625 C-1.96896323 2.3534187 -1.96896323 2.3534187 0 0 Z " fill="#4DB0D8" transform="translate(332,257)"/>
<path d="M0 0 C0.99 0 1.98 0 3 0 C3 1.98 3 3.96 3 6 C2.01 6 1.02 6 0 6 C0 4.02 0 2.04 0 0 Z " fill="#1D98CC" transform="translate(316,255)"/>
<path d="M0 0 C0.99 0 1.98 0 3 0 C3 1.98 3 3.96 3 6 C2.01 6 1.02 6 0 6 C0 4.02 0 2.04 0 0 Z " fill="#1F99CC" transform="translate(122,255)"/>
<path d="M0 0 C0.33 0 0.66 0 1 0 C1.33 3.96 1.66 7.92 2 12 C1.01 11.67 0.02 11.34 -1 11 C-0.67 7.37 -0.34 3.74 0 0 Z " fill="#0F91C8" transform="translate(151,245)"/>
</svg>
