<svg xmlns="http://www.w3.org/2000/svg" version="1.1" xmlns:xlink="http://www.w3.org/1999/xlink" xmlns:svgjs="http://svgjs.dev/svgjs" width="1920" height="1080" preserveAspectRatio="none" viewBox="0 0 1920 1080">
    <g mask="url(&quot;#SvgjsMask1069&quot;)" fill="none">
        <rect width="1920" height="1080" x="0" y="0" fill="url(&quot;#SvgjsLinearGradient1070&quot;)"></rect>
        <path d="M1952 1080L0 1080 L0 672.41Q3.07 579.48, 96 582.56Q136.36 526.92, 192 567.28Q228.94 508.22, 288 545.17Q413.13 510.3, 448 635.43Q541.25 568.68, 608 661.94Q648.71 606.65, 704 647.36Q742.44 525.8, 864 564.23Q971.52 511.75, 1024 619.27Q1035.9 535.17, 1120 547.08Q1175.22 506.3, 1216 561.52Q1341.39 526.91, 1376 652.3Q1474.25 590.55, 1536 688.8Q1561.02 553.82, 1696 578.84Q1731.29 518.13, 1792 553.42Q1907.66 509.09, 1952 624.75z" fill="rgba(27, 71, 135, 1)"></path>
        <path d="M2048 1080L0 1080 L0 841.66Q16.93 698.59, 160 715.52Q230.05 625.57, 320 695.62Q438.76 654.38, 480 773.14Q511.44 708.58, 576 740.01Q648.76 652.77, 736 725.53Q763.53 657.06, 832 684.59Q886.22 642.81, 928 697.03Q984.38 657.41, 1024 713.8Q1176.41 706.21, 1184 858.62Q1188.57 767.19, 1280 771.76Q1341.18 672.94, 1440 734.13Q1495.56 693.69, 1536 749.25Q1547.36 664.61, 1632 675.96Q1686.32 634.28, 1728 688.59Q1878.55 679.14, 1888 829.69Q1908.09 689.78, 2048 709.87z" fill="rgba(30, 90, 177, 1)"></path>
        <path d="M1984 1080L0 1080 L0 833.53Q101.73 839.25, 96 940.98Q153.97 902.95, 192 960.92Q287.1 896.02, 352 991.12Q389.7 868.82, 512 906.52Q615.18 849.7, 672 952.89Q739.58 924.47, 768 992.06Q804.53 932.59, 864 969.11Q938.27 883.38, 1024 957.65Q1047.72 821.37, 1184 845.09Q1215.24 780.33, 1280 811.56Q1339.28 774.84, 1376 834.11Q1489.64 851.75, 1472 965.39Q1563.32 896.71, 1632 988.04Q1643.38 839.41, 1792 850.79Q1823.38 786.17, 1888 817.56Q1947.38 780.93, 1984 840.31z" fill="rgba(0, 150, 201, 1)"></path>
        <path d="M1952 1080L0 1080 L0 1115.9Q6.55 1026.45, 96 1032.99Q104.09 945.08, 192 953.17Q277.25 878.42, 352 963.68Q480.1 931.78, 512 1059.88Q561.61 949.49, 672 999.1Q693.38 924.48, 768 945.85Q828.43 910.28, 864 970.7Q955.26 901.96, 1024 993.22Q1097.15 970.38, 1120 1043.53Q1136.07 963.6, 1216 979.66Q1318.48 922.14, 1376 1024.62Q1450.43 939.05, 1536 1013.48Q1635.62 953.1, 1696 1052.71Q1780.11 1040.82, 1792 1124.92Q1800.16 973.08, 1952 981.24z" fill="white"></path>
    </g>
    <defs>
        <mask id="SvgjsMask1069">
            <rect width="1920" height="1080" fill="#ffffff"></rect>
        </mask>
        <linearGradient x1="50%" y1="0%" x2="50%" y2="100%" gradientUnits="userSpaceOnUse" id="SvgjsLinearGradient1070">
            <stop stop-color="#0e2a47" offset="0"></stop>
            <stop stop-color="#00459e" offset="1"></stop>
        </linearGradient>
    </defs>
</svg>